<mxfile host="Electron" agent="Mozilla/5.0 (Windows NT 10.0; Win64; x64) AppleWebKit/537.36 (KHTML, like Gecko) draw.io/26.0.16 Chrome/132.0.6834.196 Electron/34.2.0 Safari/537.36" version="26.0.16">
  <diagram name="페이지-1" id="LI8SvpceRDAAzUcpmR5d">
    <mxGraphModel dx="5798" dy="1881" grid="1" gridSize="10" guides="1" tooltips="1" connect="1" arrows="1" fold="1" page="1" pageScale="1" pageWidth="827" pageHeight="1169" math="0" shadow="0">
      <root>
        <mxCell id="0" />
        <mxCell id="1" parent="0" />
        <mxCell id="-fRIatW9w6PtR3swFjdP-22" value="" style="rounded=0;whiteSpace=wrap;html=1;strokeWidth=10;" parent="1" vertex="1">
          <mxGeometry x="-3610" y="-70" width="11460" height="4620" as="geometry" />
        </mxCell>
        <mxCell id="-fRIatW9w6PtR3swFjdP-4" value="fnd_controller" style="rounded=0;whiteSpace=wrap;html=1;labelPosition=center;verticalLabelPosition=bottom;align=center;verticalAlign=top;fontSize=120;strokeWidth=10;" parent="1" vertex="1">
          <mxGeometry x="5860" y="220" width="1720" height="3880" as="geometry" />
        </mxCell>
        <mxCell id="uRA4H3G0nckh5KFxll-0-14" value="&lt;font&gt;Mux&lt;/font&gt;" style="shadow=0;dashed=0;align=center;html=1;strokeWidth=10;shape=mxgraph.electrical.abstract.mux2;whiteSpace=wrap;fontSize=120;" parent="1" vertex="1">
          <mxGeometry x="4700" y="1340" width="670" height="1875" as="geometry" />
        </mxCell>
        <mxCell id="M3nBMXVypOp-vO6JRJc2-9" value="" style="rounded=0;whiteSpace=wrap;html=1;strokeWidth=10;" parent="1" vertex="1">
          <mxGeometry x="120" y="40" width="3860" height="2120" as="geometry" />
        </mxCell>
        <mxCell id="M3nBMXVypOp-vO6JRJc2-10" value="stopwatch_cu" style="rounded=0;whiteSpace=wrap;html=1;fontSize=120;labelPosition=center;verticalLabelPosition=bottom;align=center;verticalAlign=top;strokeWidth=3;" parent="1" vertex="1">
          <mxGeometry x="350" y="350" width="1350" height="1510" as="geometry" />
        </mxCell>
        <mxCell id="M3nBMXVypOp-vO6JRJc2-11" value="stopwatch_dp" style="rounded=0;whiteSpace=wrap;html=1;fontSize=120;labelPosition=center;verticalLabelPosition=bottom;align=center;verticalAlign=top;strokeWidth=3;" parent="1" vertex="1">
          <mxGeometry x="2110" y="350" width="1740" height="1500" as="geometry" />
        </mxCell>
        <mxCell id="M3nBMXVypOp-vO6JRJc2-14" value="time_counter" style="rounded=0;whiteSpace=wrap;html=1;fontSize=40;" parent="1" vertex="1">
          <mxGeometry x="3190" y="470" width="390" height="210" as="geometry" />
        </mxCell>
        <mxCell id="M3nBMXVypOp-vO6JRJc2-15" value="time_counter" style="rounded=0;whiteSpace=wrap;html=1;fontSize=40;" parent="1" vertex="1">
          <mxGeometry x="3190" y="790" width="390" height="210" as="geometry" />
        </mxCell>
        <mxCell id="M3nBMXVypOp-vO6JRJc2-16" value="time_counter" style="rounded=0;whiteSpace=wrap;html=1;fontSize=40;" parent="1" vertex="1">
          <mxGeometry x="3190" y="1110" width="390" height="210" as="geometry" />
        </mxCell>
        <mxCell id="M3nBMXVypOp-vO6JRJc2-17" value="time_counter" style="rounded=0;whiteSpace=wrap;html=1;fontSize=40;" parent="1" vertex="1">
          <mxGeometry x="3190" y="1450" width="390" height="210" as="geometry" />
        </mxCell>
        <mxCell id="M3nBMXVypOp-vO6JRJc2-18" value="clk_div_100hz" style="rounded=0;whiteSpace=wrap;html=1;fontSize=40;" parent="1" vertex="1">
          <mxGeometry x="2330" y="470" width="390" height="210" as="geometry" />
        </mxCell>
        <mxCell id="M3nBMXVypOp-vO6JRJc2-19" value="" style="endArrow=none;html=1;rounded=0;entryX=0;entryY=0.5;entryDx=0;entryDy=0;" parent="1" source="M3nBMXVypOp-vO6JRJc2-18" target="M3nBMXVypOp-vO6JRJc2-14" edge="1">
          <mxGeometry width="50" height="50" relative="1" as="geometry">
            <mxPoint x="2800" y="1430" as="sourcePoint" />
            <mxPoint x="2850" y="1380" as="targetPoint" />
          </mxGeometry>
        </mxCell>
        <mxCell id="M3nBMXVypOp-vO6JRJc2-28" value="" style="line;strokeWidth=2;direction=south;html=1;" parent="1" vertex="1">
          <mxGeometry x="3690" y="640" width="10" height="100" as="geometry" />
        </mxCell>
        <mxCell id="M3nBMXVypOp-vO6JRJc2-29" value="" style="line;strokeWidth=2;direction=south;html=1;" parent="1" vertex="1">
          <mxGeometry x="2970" y="730" width="230" height="130" as="geometry" />
        </mxCell>
        <mxCell id="M3nBMXVypOp-vO6JRJc2-31" value="" style="line;strokeWidth=2;html=1;" parent="1" vertex="1">
          <mxGeometry x="3080" y="730" width="620" height="10" as="geometry" />
        </mxCell>
        <mxCell id="M3nBMXVypOp-vO6JRJc2-32" value="" style="line;strokeWidth=2;html=1;" parent="1" vertex="1">
          <mxGeometry x="3580" y="640" width="120" height="10" as="geometry" />
        </mxCell>
        <mxCell id="M3nBMXVypOp-vO6JRJc2-34" value="" style="line;strokeWidth=2;html=1;" parent="1" vertex="1">
          <mxGeometry x="3580" y="510" width="630" height="10" as="geometry" />
        </mxCell>
        <mxCell id="M3nBMXVypOp-vO6JRJc2-35" value="" style="line;strokeWidth=2;html=1;" parent="1" vertex="1">
          <mxGeometry x="3080" y="850" width="110" height="10" as="geometry" />
        </mxCell>
        <mxCell id="M3nBMXVypOp-vO6JRJc2-36" value="" style="line;strokeWidth=2;direction=south;html=1;" parent="1" vertex="1">
          <mxGeometry x="2560" y="930" width="10" height="680" as="geometry" />
        </mxCell>
        <mxCell id="M3nBMXVypOp-vO6JRJc2-37" value="" style="line;strokeWidth=2;direction=south;html=1;" parent="1" vertex="1">
          <mxGeometry x="2970" y="1040" width="230" height="130" as="geometry" />
        </mxCell>
        <mxCell id="M3nBMXVypOp-vO6JRJc2-38" value="" style="line;strokeWidth=2;html=1;" parent="1" vertex="1">
          <mxGeometry x="3080" y="1040" width="620" height="10" as="geometry" />
        </mxCell>
        <mxCell id="M3nBMXVypOp-vO6JRJc2-39" value="" style="line;strokeWidth=2;html=1;" parent="1" vertex="1">
          <mxGeometry x="3580" y="950" width="120" height="10" as="geometry" />
        </mxCell>
        <mxCell id="M3nBMXVypOp-vO6JRJc2-40" value="" style="line;strokeWidth=2;html=1;" parent="1" vertex="1">
          <mxGeometry x="3080" y="1160" width="110" height="10" as="geometry" />
        </mxCell>
        <mxCell id="M3nBMXVypOp-vO6JRJc2-41" value="" style="line;strokeWidth=2;direction=south;html=1;" parent="1" vertex="1">
          <mxGeometry x="3690" y="1280" width="10" height="100" as="geometry" />
        </mxCell>
        <mxCell id="M3nBMXVypOp-vO6JRJc2-42" value="" style="line;strokeWidth=2;direction=south;html=1;" parent="1" vertex="1">
          <mxGeometry x="2970" y="1370" width="230" height="130" as="geometry" />
        </mxCell>
        <mxCell id="M3nBMXVypOp-vO6JRJc2-43" value="" style="line;strokeWidth=2;html=1;" parent="1" vertex="1">
          <mxGeometry x="3080" y="1370" width="620" height="10" as="geometry" />
        </mxCell>
        <mxCell id="M3nBMXVypOp-vO6JRJc2-44" value="" style="line;strokeWidth=2;html=1;" parent="1" vertex="1">
          <mxGeometry x="3580" y="1280" width="120" height="10" as="geometry" />
        </mxCell>
        <mxCell id="M3nBMXVypOp-vO6JRJc2-45" value="" style="line;strokeWidth=2;html=1;" parent="1" vertex="1">
          <mxGeometry x="3080" y="1490" width="110" height="10" as="geometry" />
        </mxCell>
        <mxCell id="M3nBMXVypOp-vO6JRJc2-46" value="" style="line;strokeWidth=2;html=1;" parent="1" vertex="1">
          <mxGeometry x="3580" y="840" width="620" height="10" as="geometry" />
        </mxCell>
        <mxCell id="M3nBMXVypOp-vO6JRJc2-47" value="" style="line;strokeWidth=2;html=1;" parent="1" vertex="1">
          <mxGeometry x="3580" y="1150" width="610" height="10" as="geometry" />
        </mxCell>
        <mxCell id="M3nBMXVypOp-vO6JRJc2-48" value="" style="line;strokeWidth=2;html=1;" parent="1" vertex="1">
          <mxGeometry x="3580" y="1500" width="620" height="10" as="geometry" />
        </mxCell>
        <mxCell id="M3nBMXVypOp-vO6JRJc2-49" value="" style="line;strokeWidth=2;html=1;" parent="1" vertex="1">
          <mxGeometry x="2110" y="560" width="220" height="10" as="geometry" />
        </mxCell>
        <mxCell id="M3nBMXVypOp-vO6JRJc2-50" value="watch" style="rounded=0;whiteSpace=wrap;html=1;fontSize=120;labelPosition=center;verticalLabelPosition=bottom;align=center;verticalAlign=top;strokeWidth=10;" parent="1" vertex="1">
          <mxGeometry x="120" y="2705" width="3740" height="1565" as="geometry" />
        </mxCell>
        <mxCell id="M3nBMXVypOp-vO6JRJc2-51" value="time_counter_watch_msec" style="rounded=0;whiteSpace=wrap;html=1;fontSize=40;" parent="1" vertex="1">
          <mxGeometry x="2460" y="2770" width="790" height="280" as="geometry" />
        </mxCell>
        <mxCell id="M3nBMXVypOp-vO6JRJc2-52" value="time_counter_watch_sec" style="rounded=0;whiteSpace=wrap;html=1;fontSize=40;" parent="1" vertex="1">
          <mxGeometry x="2460" y="3100" width="790" height="270" as="geometry" />
        </mxCell>
        <mxCell id="M3nBMXVypOp-vO6JRJc2-53" value="time_counter_watch_min" style="rounded=0;whiteSpace=wrap;html=1;fontSize=40;" parent="1" vertex="1">
          <mxGeometry x="2460" y="3430" width="790" height="270" as="geometry" />
        </mxCell>
        <mxCell id="M3nBMXVypOp-vO6JRJc2-54" value="time_counter_watch_hour" style="rounded=0;whiteSpace=wrap;html=1;fontSize=40;labelPosition=center;verticalLabelPosition=middle;align=center;verticalAlign=middle;" parent="1" vertex="1">
          <mxGeometry x="2460" y="3790" width="800" height="310" as="geometry" />
        </mxCell>
        <mxCell id="M3nBMXVypOp-vO6JRJc2-55" value="clk_div_100hz" style="rounded=0;whiteSpace=wrap;html=1;fontSize=40;" parent="1" vertex="1">
          <mxGeometry x="700" y="2760" width="740" height="350" as="geometry" />
        </mxCell>
        <mxCell id="M3nBMXVypOp-vO6JRJc2-61" value="" style="line;strokeWidth=2;html=1;" parent="1" vertex="1">
          <mxGeometry x="3580" y="2800" width="570" height="10" as="geometry" />
        </mxCell>
        <mxCell id="M3nBMXVypOp-vO6JRJc2-73" value="" style="line;strokeWidth=2;html=1;" parent="1" vertex="1">
          <mxGeometry x="3580" y="3130" width="560" height="10" as="geometry" />
        </mxCell>
        <mxCell id="M3nBMXVypOp-vO6JRJc2-74" value="" style="line;strokeWidth=2;html=1;" parent="1" vertex="1">
          <mxGeometry x="3580" y="3440" width="560" height="10" as="geometry" />
        </mxCell>
        <mxCell id="M3nBMXVypOp-vO6JRJc2-75" value="" style="line;strokeWidth=2;html=1;" parent="1" vertex="1">
          <mxGeometry x="3580" y="3790" width="570" height="10" as="geometry" />
        </mxCell>
        <mxCell id="M3nBMXVypOp-vO6JRJc2-76" value="" style="line;strokeWidth=2;html=1;" parent="1" vertex="1">
          <mxGeometry x="480" y="2860" width="220" height="10" as="geometry" />
        </mxCell>
        <mxCell id="M3nBMXVypOp-vO6JRJc2-94" value="" style="line;strokeWidth=2;html=1;" parent="1" vertex="1">
          <mxGeometry x="1700" y="560" width="410" height="10" as="geometry" />
        </mxCell>
        <mxCell id="M3nBMXVypOp-vO6JRJc2-95" value="" style="line;strokeWidth=2;html=1;" parent="1" vertex="1">
          <mxGeometry x="1700" y="1110" width="1490" height="310" as="geometry" />
        </mxCell>
        <mxCell id="M3nBMXVypOp-vO6JRJc2-96" value="" style="line;strokeWidth=2;html=1;" parent="1" vertex="1">
          <mxGeometry x="2560" y="930" width="630" height="10" as="geometry" />
        </mxCell>
        <mxCell id="M3nBMXVypOp-vO6JRJc2-97" value="" style="line;strokeWidth=2;html=1;" parent="1" vertex="1">
          <mxGeometry x="2560" y="1600" width="630" height="10" as="geometry" />
        </mxCell>
        <mxCell id="M3nBMXVypOp-vO6JRJc2-98" value="" style="line;strokeWidth=2;direction=south;html=1;" parent="1" vertex="1">
          <mxGeometry x="3690" y="950" width="10" height="100" as="geometry" />
        </mxCell>
        <mxCell id="M3nBMXVypOp-vO6JRJc2-114" value="btn_debouncing" style="rounded=0;whiteSpace=wrap;labelBorderColor=none;fontStyle=0;strokeWidth=10;fontSize=120;labelPosition=center;verticalLabelPosition=bottom;align=center;verticalAlign=top;" parent="1" vertex="1">
          <mxGeometry x="-3180" y="50" width="3080" height="4220" as="geometry" />
        </mxCell>
        <mxCell id="M3nBMXVypOp-vO6JRJc2-99" value="Demux" style="shadow=0;dashed=0;align=center;html=1;strokeWidth=3;shape=mxgraph.electrical.abstract.mux2;operation=demux;whiteSpace=wrap;fontSize=120;" parent="1" vertex="1">
          <mxGeometry x="-2920" y="1741" width="630" height="1350" as="geometry" />
        </mxCell>
        <mxCell id="M3nBMXVypOp-vO6JRJc2-79" value="btn_debounce_hour" style="rounded=0;whiteSpace=wrap;html=1;fontSize=100;strokeWidth=3;" parent="1" vertex="1">
          <mxGeometry x="-1660" y="3750" width="970" height="270" as="geometry" />
        </mxCell>
        <mxCell id="M3nBMXVypOp-vO6JRJc2-80" value="btn_debounce_min" style="rounded=0;whiteSpace=wrap;html=1;fontSize=100;strokeWidth=3;" parent="1" vertex="1">
          <mxGeometry x="-1660" y="3411" width="970" height="270" as="geometry" />
        </mxCell>
        <mxCell id="M3nBMXVypOp-vO6JRJc2-81" value="btn_debounce_sec" style="rounded=0;whiteSpace=wrap;html=1;fontSize=100;strokeWidth=3;" parent="1" vertex="1">
          <mxGeometry x="-1660" y="3091" width="970" height="270" as="geometry" />
        </mxCell>
        <mxCell id="M3nBMXVypOp-vO6JRJc2-86" value="" style="line;strokeWidth=2;html=1;" parent="1" vertex="1">
          <mxGeometry x="-690" y="3290" width="3150" height="10" as="geometry" />
        </mxCell>
        <mxCell id="M3nBMXVypOp-vO6JRJc2-87" value="" style="line;strokeWidth=2;html=1;" parent="1" vertex="1">
          <mxGeometry x="-690" y="3610" width="3150" height="10" as="geometry" />
        </mxCell>
        <mxCell id="M3nBMXVypOp-vO6JRJc2-88" value="" style="line;strokeWidth=2;html=1;" parent="1" vertex="1">
          <mxGeometry x="-685" y="3950" width="3140" height="10" as="geometry" />
        </mxCell>
        <mxCell id="M3nBMXVypOp-vO6JRJc2-115" value="btn_debounce_clear" style="rounded=0;whiteSpace=wrap;html=1;fontSize=100;strokeWidth=3;" parent="1" vertex="1">
          <mxGeometry x="-1660" y="1420" width="970" height="270" as="geometry" />
        </mxCell>
        <mxCell id="M3nBMXVypOp-vO6JRJc2-116" value="btn_debounce_reset" style="rounded=0;whiteSpace=wrap;html=1;fontSize=100;strokeWidth=4;" parent="1" vertex="1">
          <mxGeometry x="-1650" y="640" width="970" height="270" as="geometry" />
        </mxCell>
        <mxCell id="M3nBMXVypOp-vO6JRJc2-92" value="" style="line;strokeWidth=2;html=1;" parent="1" vertex="1">
          <mxGeometry x="-690" y="1540" width="1040" height="10" as="geometry" />
        </mxCell>
        <mxCell id="M3nBMXVypOp-vO6JRJc2-93" value="" style="line;strokeWidth=2;html=1;" parent="1" vertex="1">
          <mxGeometry x="-680" y="750" width="1030" height="10" as="geometry" />
        </mxCell>
        <mxCell id="M3nBMXVypOp-vO6JRJc2-119" value="&lt;div&gt;4&lt;/div&gt;&lt;div&gt;controll&lt;/div&gt;&lt;div&gt;button&lt;/div&gt;" style="labelPosition=center;verticalLabelPosition=middle;align=center;html=1;shape=mxgraph.basic.button;dx=10;whiteSpace=wrap;fontSize=120;strokeWidth=10;" parent="1" vertex="1">
          <mxGeometry x="-4810" y="2081" width="840" height="670" as="geometry" />
        </mxCell>
        <mxCell id="M3nBMXVypOp-vO6JRJc2-120" value="" style="line;strokeWidth=2;html=1;" parent="1" vertex="1">
          <mxGeometry x="-3970" y="2431" width="1060" height="10" as="geometry" />
        </mxCell>
        <mxCell id="M3nBMXVypOp-vO6JRJc2-121" value="reset" style="labelPosition=center;verticalLabelPosition=middle;align=center;html=1;shape=mxgraph.basic.button;dx=10;whiteSpace=wrap;fontSize=120;strokeWidth=10;" parent="1" vertex="1">
          <mxGeometry x="-4790" y="565" width="830" height="420" as="geometry" />
        </mxCell>
        <mxCell id="M3nBMXVypOp-vO6JRJc2-122" value="&lt;div&gt;2&lt;/div&gt;switch" style="html=1;whiteSpace=wrap;fontSize=120;strokeWidth=10;" parent="1" vertex="1">
          <mxGeometry x="1060" y="-880" width="840" height="390" as="geometry" />
        </mxCell>
        <mxCell id="M3nBMXVypOp-vO6JRJc2-123" value="" style="line;strokeWidth=2;html=1;" parent="1" vertex="1">
          <mxGeometry x="-3960" y="770" width="2310" height="10" as="geometry" />
        </mxCell>
        <mxCell id="M3nBMXVypOp-vO6JRJc2-124" value="" style="line;strokeWidth=2;html=1;" parent="1" vertex="1">
          <mxGeometry x="-2300" y="1830" width="220" height="10" as="geometry" />
        </mxCell>
        <mxCell id="M3nBMXVypOp-vO6JRJc2-125" value="" style="line;strokeWidth=2;html=1;" parent="1" vertex="1">
          <mxGeometry x="-2300" y="1950" width="390" height="10" as="geometry" />
        </mxCell>
        <mxCell id="M3nBMXVypOp-vO6JRJc2-126" value="" style="line;strokeWidth=2;html=1;" parent="1" vertex="1">
          <mxGeometry x="-2300" y="2240" width="220" height="10" as="geometry" />
        </mxCell>
        <mxCell id="M3nBMXVypOp-vO6JRJc2-127" value="" style="line;strokeWidth=2;html=1;" parent="1" vertex="1">
          <mxGeometry x="-2300" y="2090" width="220" height="10" as="geometry" />
        </mxCell>
        <mxCell id="M3nBMXVypOp-vO6JRJc2-128" value="" style="line;strokeWidth=2;html=1;" parent="1" vertex="1">
          <mxGeometry x="-2300" y="2550" width="580" height="10" as="geometry" />
        </mxCell>
        <mxCell id="M3nBMXVypOp-vO6JRJc2-129" value="" style="line;strokeWidth=2;html=1;" parent="1" vertex="1">
          <mxGeometry x="-2300" y="2670" width="470" height="10" as="geometry" />
        </mxCell>
        <mxCell id="M3nBMXVypOp-vO6JRJc2-130" value="" style="line;strokeWidth=2;html=1;" parent="1" vertex="1">
          <mxGeometry x="-2300" y="2960" width="360" height="10" as="geometry" />
        </mxCell>
        <mxCell id="M3nBMXVypOp-vO6JRJc2-131" value="" style="line;strokeWidth=2;html=1;" parent="1" vertex="1">
          <mxGeometry x="-2300" y="2810" width="220" height="10" as="geometry" />
        </mxCell>
        <mxCell id="M3nBMXVypOp-vO6JRJc2-132" value="stopwatch&lt;div&gt;btn&lt;/div&gt;" style="text;html=1;align=center;verticalAlign=middle;whiteSpace=wrap;rounded=0;fontSize=100;" parent="1" vertex="1">
          <mxGeometry x="-2440" y="2051" width="60" height="30" as="geometry" />
        </mxCell>
        <mxCell id="M3nBMXVypOp-vO6JRJc2-133" value="watch&lt;div&gt;btn&lt;/div&gt;" style="text;html=1;align=center;verticalAlign=middle;whiteSpace=wrap;rounded=0;fontSize=100;" parent="1" vertex="1">
          <mxGeometry x="-2410" y="2740" width="60" height="30" as="geometry" />
        </mxCell>
        <mxCell id="M3nBMXVypOp-vO6JRJc2-137" value="" style="line;strokeWidth=2;html=1;" parent="1" vertex="1">
          <mxGeometry x="-1920" y="1540" width="260" height="10" as="geometry" />
        </mxCell>
        <mxCell id="M3nBMXVypOp-vO6JRJc2-139" value="" style="line;strokeWidth=2;direction=south;html=1;" parent="1" vertex="1">
          <mxGeometry x="-2030" y="1540" width="230" height="420" as="geometry" />
        </mxCell>
        <mxCell id="M3nBMXVypOp-vO6JRJc2-140" value="" style="line;strokeWidth=2;direction=south;html=1;" parent="1" vertex="1">
          <mxGeometry x="-1837" y="2550" width="230" height="690" as="geometry" />
        </mxCell>
        <mxCell id="M3nBMXVypOp-vO6JRJc2-141" value="" style="line;strokeWidth=2;direction=south;html=1;" parent="1" vertex="1">
          <mxGeometry x="-1950" y="2670" width="230" height="1210" as="geometry" />
        </mxCell>
        <mxCell id="M3nBMXVypOp-vO6JRJc2-142" value="" style="line;strokeWidth=2;direction=south;html=1;" parent="1" vertex="1">
          <mxGeometry x="-2060" y="2960" width="230" height="590" as="geometry" />
        </mxCell>
        <mxCell id="M3nBMXVypOp-vO6JRJc2-143" value="" style="line;strokeWidth=2;html=1;" parent="1" vertex="1">
          <mxGeometry x="-1730" y="3230" width="70" height="10" as="geometry" />
        </mxCell>
        <mxCell id="M3nBMXVypOp-vO6JRJc2-144" value="" style="line;strokeWidth=2;html=1;" parent="1" vertex="1">
          <mxGeometry x="-1950" y="3540" width="290" height="10" as="geometry" />
        </mxCell>
        <mxCell id="M3nBMXVypOp-vO6JRJc2-145" value="" style="line;strokeWidth=2;html=1;" parent="1" vertex="1">
          <mxGeometry x="-1840" y="3870" width="180" height="10" as="geometry" />
        </mxCell>
        <mxCell id="M3nBMXVypOp-vO6JRJc2-147" value="" style="line;strokeWidth=2;html=1;" parent="1" vertex="1">
          <mxGeometry x="1440" y="2970" width="1020" height="10" as="geometry" />
        </mxCell>
      </root>
    </mxGraphModel>
  </diagram>
</mxfile>
